<?xml version="1.0" encoding="UTF-8"?> <svg xmlns="http://www.w3.org/2000/svg" width="64" height="64"><!-- Created with Method Draw - http://github.com/duopixel/Method-Draw/ --><g><title>background</title><rect fill="none" id="canvas_background" height="66" width="66" y="-1" x="-1"></rect><g display="none" id="canvasGrid"><rect fill="url(#gridpattern)" stroke-width="0" y="1" x="1" height="60" width="60" id="svg_3"></rect></g></g><g><title>Layer 1</title><path stroke="#000" id="svg_2" d="m23.36394,54.8419c-16.43864,-13.75115 -22.3161,-22.44988 -22.36374,-33.0987c-0.04343,-9.7077 7.21199,-19.07707 14.73097,-19.02303c3.75464,0.02703 11.80858,3.6 14.66052,6.50393c1.43697,1.46317 2.11758,1.31889 5.31685,-1.12711c8.70704,-6.65694 17.20954,-6.79667 22.71614,-0.37328c8.80071,10.26593 7.19845,22.52533 -4.60598,35.24163c-6.27591,6.76072 -19.98111,18.75464 -21.43055,18.75464c-0.44104,0 -4.50194,-3.09513 -9.02421,-6.87807l0,0l0,0z" stroke-opacity="null" stroke-width="0" fill="#e64946"></path></g></svg> 