<?xml version="1.0" encoding="UTF-8"?> <svg xmlns="http://www.w3.org/2000/svg" width="273" height="259"><!-- Created with Method Draw - http://github.com/duopixel/Method-Draw/ --><g><title>background</title><rect fill="none" id="canvas_background" height="261" width="275" y="-1" x="-1"></rect><g display="none" id="canvasGrid"><rect fill="url(#gridpattern)" stroke-width="0" y="1" x="1" height="60" width="60" id="svg_3"></rect></g></g><g><title>Layer 1</title><path stroke="#000" id="svg_2" d="m135.81545,150.70714c-13.83032,-10.02203 -18.77521,-16.36178 -18.81529,-24.12278c-0.03654,-7.07511 6.06766,-13.90363 12.39361,-13.86425c3.15889,0.0197 9.93491,2.62373 12.33433,4.74015c1.20897,1.06637 1.78159,0.96122 4.47323,-0.82145c7.32549,-4.85167 14.47891,-4.95351 19.11177,-0.27205c7.40431,7.48195 6.05627,16.41677 -3.87515,25.68458c-5.28011,4.92731 -16.81071,13.66863 -18.03017,13.66863c-0.37106,0 -3.78761,-2.25578 -7.59234,-5.01283l0,0l0,0z" stroke-opacity="null" stroke-width="0" fill="#e64946"></path></g></svg> 