<?xml version="1.0" encoding="UTF-8"?> <svg xmlns="http://www.w3.org/2000/svg" width="50" height="50"><!-- Created with Method Draw - http://github.com/duopixel/Method-Draw/ --><g><title>background</title><rect x="-1" y="-1" width="52" height="52" id="canvas_background" fill="none"></rect><g id="canvasGrid" display="none"><rect id="svg_3" width="100%" height="100%" x="0" y="0" stroke-width="0" fill="url(#gridpattern)"></rect></g></g><g><title>Layer 1</title><path stroke="#000" fill="#e64946" stroke-width="0" stroke-opacity="null" d="m18.90364,40.29002c-10.95494,-8.85666 -14.87177,-14.45923 -14.90351,-21.31779c-0.02895,-6.25241 4.80617,-12.28691 9.81693,-12.25211c2.50214,0.01741 7.86941,2.31864 9.76998,4.18897c0.95762,0.94238 1.41119,0.84945 3.54323,-0.72593c5.80249,-4.28752 11.46868,-4.37751 15.13836,-0.24042c5.86492,6.61195 4.79715,14.50782 -3.06949,22.69798c-4.18235,4.35436 -13.3157,12.07925 -14.28162,12.07925c-0.29392,0 -3.00015,-1.99347 -6.01386,-4.42994l0,0z" id="svg_2"></path></g></svg> 