<?xml version="1.0" encoding="UTF-8"?> <svg xmlns="http://www.w3.org/2000/svg" width="100" height="90"><!-- Created with Method Draw - http://github.com/duopixel/Method-Draw/ --><g><title>background</title><rect x="-1" y="-1" width="102" height="92" id="canvas_background" fill="none"></rect><g id="canvasGrid" display="none"><rect id="svg_3" width="100%" height="100%" x="0" y="0" stroke-width="0" fill="url(#gridpattern)"></rect></g></g><g><title>Layer 1</title><path stroke="#000" fill="#e64946" stroke-width="0" stroke-opacity="null" d="m36.48486,79.46115c-26.08319,-20.51017 -35.40897,-33.48454 -35.48455,-49.36751c-0.06892,-14.47928 11.44326,-28.45391 23.37364,-28.37331c5.95749,0.04032 18.73668,5.36949 23.26184,9.70077c2.28004,2.18235 3.35997,1.96715 8.43625,-1.68111c13.81546,-9.92899 27.30639,-10.1374 36.0437,-0.55676c13.9641,15.31188 11.42178,33.59707 -7.3083,52.56374c-9.95798,10.08378 -31.70404,27.97299 -34.00386,27.97299c-0.69981,0 -7.14322,-4.61647 -14.31872,-10.25881l0,0z" id="svg_2"></path></g></svg> 