<?xml version="1.0" encoding="UTF-8"?> <svg xmlns="http://www.w3.org/2000/svg" width="512" height="512"><!-- Created with Method Draw - http://github.com/duopixel/Method-Draw/ --><g><title>background</title><rect x="-1" y="-1" width="514" height="514" id="canvas_background" fill="none"></rect><g id="canvasGrid" display="none"><rect id="svg_3" width="100%" height="100%" x="0" y="0" stroke-width="0" fill="url(#gridpattern)"></rect></g></g><g><title>Layer 1</title><path stroke="#000" fill="#e64946" stroke-width="0" stroke-opacity="null" d="m183.20699,446.66442c-131.72633,-116.06896 -178.82372,-189.49211 -179.20543,-279.3753c-0.34805,-81.93956 57.7912,-161.02328 118.04243,-160.56719c30.08672,0.22816 94.62469,30.38643 117.47785,54.89754c11.51475,12.3501 16.96866,11.13229 42.60507,-9.51356c69.77135,-56.18905 137.90375,-57.36846 182.02929,-3.15073c70.52201,86.65133 57.68269,190.12893 -36.90868,297.46305c-50.29019,57.06507 -160.11294,158.30175 -171.72757,158.30175c-3.53418,0 -36.07497,-26.12501 -72.31295,-58.05555l0,0z" id="svg_2"></path></g></svg> 