<?xml version="1.0" encoding="UTF-8"?> <svg xmlns="http://www.w3.org/2000/svg" width="800" height="600"><!-- Created with Method Draw - http://github.com/duopixel/Method-Draw/ --><g><title>background</title><rect fill="#fff" id="canvas_background" height="602" width="802" y="-1" x="-1"></rect><g display="none" overflow="visible" y="0" x="0" height="100%" width="100%" id="canvasGrid"><rect fill="url(#gridpattern)" stroke-width="0" y="0" x="0" height="100%" width="100%"></rect></g></g><g><title>Layer 1</title><text stroke="#000" transform="matrix(1.2478458881378174,0,0,1.2727272510528564,-122.1609147079289,-62.72726774215698) " xml:space="preserve" text-anchor="start" font-family="Helvetica, Arial, sans-serif" font-size="24" id="svg_1" y="255" x="331.5" stroke-width="0" fill="#000000">Russian Brides</text><path id="svg_2" d="m253.60437,261.61524c-11.4766,-6.75903 -15.57995,-11.03468 -15.6132,-16.26884c-0.03033,-4.77158 5.03504,-9.37686 10.2844,-9.3503c2.6213,0.01329 8.24414,1.76949 10.23521,3.19684c1.00322,0.71918 1.47839,0.64826 3.71195,-0.554c6.0788,-3.27205 12.01481,-3.34073 15.85923,-0.18348c6.1442,5.04596 5.02558,11.07176 -3.21565,17.32215c-4.38151,3.32307 -13.94978,9.21837 -14.9617,9.21837c-0.30791,0 -3.14302,-1.52134 -6.30023,-3.38074l0,0z" stroke-opacity="null" stroke-width="0" stroke="#000" fill="#e64946"></path></g></svg> 