<?xml version="1.0" encoding="UTF-8"?> <svg xmlns="http://www.w3.org/2000/svg" width="350" height="80"><!-- Created with Method Draw - http://github.com/duopixel/Method-Draw/ --><g><title>background</title><rect x="-1" y="-1" width="352" height="82" id="canvas_background" fill="none"></rect><g id="canvasGrid" display="none"><rect id="svg_3" width="100%" height="100%" x="0" y="0" stroke-width="0" fill="url(#gridpattern)"></rect></g></g><g><title>Layer 1</title><text fill="#000000" stroke-width="0" x="110.5" y="51" id="svg_1" font-size="32" font-family="Helvetica, Arial, sans-serif" text-anchor="start" xml:space="preserve" stroke="#000">Russian Brides</text><path fill="#e64946" stroke="#000" stroke-width="0" stroke-opacity="null" d="m47.07656,65.14243c-18.7799,-15.14956 -25.49446,-24.7329 -25.54888,-36.46464c-0.04962,-10.69492 8.23915,-21.01709 16.82902,-20.95756c4.28939,0.02978 13.49041,3.9661 16.74853,7.16534c1.64163,1.61196 2.41918,1.45301 6.0741,-1.24173c9.94713,-7.33391 19.6606,-7.48785 25.95147,-0.41124c10.05415,11.30991 8.22368,24.81602 -5.26198,38.82549c-7.16975,7.44825 -22.82691,20.66187 -24.48278,20.66187c-0.50386,0 -5.14312,-3.40989 -10.30948,-7.57753l0,0z" id="svg_2"></path></g></svg> 