<?xml version="1.0" encoding="UTF-8"?> <svg xmlns="http://www.w3.org/2000/svg" width="800" height="120"><!-- Created with Method Draw - http://github.com/duopixel/Method-Draw/ --><g><title>background</title><rect x="-1" y="-1" width="802" height="122" id="canvas_background" fill="none"></rect><g id="canvasGrid" display="none"><rect id="svg_3" width="100%" height="100%" x="0" y="0" stroke-width="0" fill="url(#gridpattern)"></rect></g></g><g><title>Layer 1</title><text fill="#000000" stroke-width="0" x="114" y="92" id="svg_1" font-size="100" font-family="Helvetica, Arial, sans-serif" text-anchor="start" xml:space="preserve" stroke="#000">Russian Brides</text><path stroke="#000" fill="#e64946" stroke-width="0" stroke-opacity="null" d="m40.65747,89.99484c-25.82236,-21.44245 -35.05488,-35.00657 -35.12971,-51.61149c-0.06823,-15.13743 11.32883,-29.74727 23.1399,-29.66301c5.89791,0.04215 18.54931,5.61356 23.02923,10.14171c2.25724,2.28154 3.32637,2.05657 8.35189,-1.75753c13.6773,-10.3803 27.03332,-10.59819 35.68327,-0.58206c13.82446,16.00787 11.30756,35.12421 -7.23522,54.953c-9.85841,10.54214 -31.387,29.24449 -33.66382,29.24449c-0.69281,0 -7.07179,-4.82631 -14.17553,-10.72512l0,0z" id="svg_2"></path></g></svg> 